<svg id="Livello_1" data-name="Livello 1" xmlns="http://www.w3.org/2000/svg" viewBox="0 0 271 158.48"><defs><style>.cls-1{fill:#ff99af;}.cls-2{fill:#ff6c7e;}.cls-3{fill:#ff4d5a;}.cls-4{fill:#fff;}.cls-5{fill:#e1edff;}.cls-6{fill:#183a56;}.cls-7{fill:#111b30;}.cls-8{fill:#fecc41;}.cls-9{fill:#db8f80;}.cls-10{fill:#ff4129;}.cls-11{fill:#f6faff;}.cls-12{fill:#dba621;}.cls-13{fill:#e02112;}</style></defs><title>404</title><path class="cls-1" d="M93.08,209.12c-53.74,8-105.51-41.94-64-99,16.49-22.67,31.11-33.3,49.22-39.93C109.52,58.78,131.67,83,160.8,83.86c17.31,1.63,32.23-.89,49-3.86,69.19-12.23,89.06,57.63,66,94-20.35,32-51.73,17.39-77.2,30.33C158.68,224.56,122.85,204.63,93.08,209.12Z" transform="translate(-14 -55.09)"/><path class="cls-1" d="M153.37,75.87c9.92,3.94,23.91,1.79,27.13-8.08C184,46.09,121.9,56.6,135.91,67,141.78,71.4,148.33,73.93,153.37,75.87Z" transform="translate(-14 -55.09)"/><path class="cls-1" d="M55.81,89.32a14.49,14.49,0,1,1-.39-3.38A15.1,15.1,0,0,1,55.81,89.32Z" transform="translate(-14 -55.09)"/><path class="cls-2" d="M55.81,89.32a14.53,14.53,0,1,1-27.53-6.49c.11,4.59,2.13,11.51,10.67,14.28S53.44,90,55.42,85.94A15.1,15.1,0,0,1,55.81,89.32Z" transform="translate(-14 -55.09)"/><path class="cls-2" d="M32.81,89.32c-1.65-1.73-.09-5.79,1.21-4.49S34.45,91.05,32.81,89.32Z" transform="translate(-14 -55.09)"/><path class="cls-2" d="M42.92,89.32c-.46-1.08,2.43-2.51,2.17-1S43.7,91.14,42.92,89.32Z" transform="translate(-14 -55.09)"/><path class="cls-2" d="M45.1,81.63c-4.89-1.37-2.06-4.24,0-3.2S47.89,82.4,45.1,81.63Z" transform="translate(-14 -55.09)"/><path class="cls-2" d="M36,92.7c-1.13-4,.08-7.53,6-7.7s7.35-2.25,6.32-4.33,2.07-1.73,2.07-1.73a1.62,1.62,0,0,0-1.21,2.43c1,2-3.19,5-6.28,4.44S35.57,87.07,36,92.7Z" transform="translate(-14 -55.09)"/><path class="cls-2" d="M37.56,84c1.65-1.82,8,.17,9.37-1.56,0,0-.89,1.7-3.57,1.21A15.64,15.64,0,0,0,37.56,84Z" transform="translate(-14 -55.09)"/><path class="cls-2" d="M49.21,87.2l-.11-.14a27.14,27.14,0,0,0,2.44-3.15l.56-.78.15.11-.56.78A25.63,25.63,0,0,1,49.21,87.2Z" transform="translate(-14 -55.09)"/><path class="cls-2" d="M34.19,81.78a3.49,3.49,0,0,1,1.09-3.62A8.22,8.22,0,0,1,43,76.61l-.06.17a8,8,0,0,0-7.55,1.52,3.3,3.3,0,0,0-1,3.43Z" transform="translate(-14 -55.09)"/><path class="cls-2" d="M32.39,94.66C29,90.86,30.88,84,30.9,83.94l.18,0c0,.06-1.85,6.82,1.45,10.55Z" transform="translate(-14 -55.09)"/><path class="cls-2" d="M39.35,99.18c-3.63-1-4.27-3.79-4.79-6a11.64,11.64,0,0,0-.51-1.81l.17-.07a12.36,12.36,0,0,1,.52,1.84c.5,2.19,1.13,4.91,4.66,5.89Z" transform="translate(-14 -55.09)"/><path class="cls-3" d="M51.25,78.75c.83-.41,1.82-.85,2.66-1.25s1.68-.76,2.53-1.12a43.91,43.91,0,0,1,5.27-1.89c.45-.13.92-.23,1.4-.32A7.32,7.32,0,0,1,64.62,74a3,3,0,0,1,.88.15,1.58,1.58,0,0,1,.5.28,1,1,0,0,1,.24.23,1.3,1.3,0,0,1,.1.15,1.09,1.09,0,0,1,.08.15,1.52,1.52,0,0,1,.12.63,2.3,2.3,0,0,1,0,.28c0,.08,0,.17-.06.24a3.18,3.18,0,0,1-.33.79,8.27,8.27,0,0,1-.87,1.24c-.31.38-.63.73-1,1.07-.66.69-1.35,1.32-2,1.94-1.4,1.24-2.86,2.38-4.35,3.49s-3,2.17-4.53,3.21c-3.08,2-6.21,4-9.42,5.85S37.5,97.35,34.18,99A94.37,94.37,0,0,1,24,103.33c-.89.3-1.78.58-2.7.82-.45.12-.92.23-1.39.31a10.15,10.15,0,0,1-1.48.17,5.91,5.91,0,0,1-.82,0,2.68,2.68,0,0,1-.45-.11l-.25-.11a1.38,1.38,0,0,1-.25-.15,1.55,1.55,0,0,1-.42-.52c0-.06-.05-.12-.07-.17a1,1,0,0,1,0-.17l0-.16V103a2.38,2.38,0,0,1,.26-.93,7.06,7.06,0,0,1,.86-1.27,13.86,13.86,0,0,1,1-1,44.19,44.19,0,0,1,4.26-3.63c.73-.56,1.48-1.11,2.23-1.64s1.74-1.31,2.51-1.82l.24.91c-.74.55-1.46,1.1-2.19,1.67S23.77,96.41,23.06,97a43.74,43.74,0,0,0-4,3.67c-.3.33-.59.66-.86,1a6.27,6.27,0,0,0-.66,1,1.23,1.23,0,0,0-.11.39v0s0,0,0,0h0a.74.74,0,0,0,.33.1,3.43,3.43,0,0,0,.56,0,8,8,0,0,0,1.25-.17c.43-.09.86-.2,1.29-.32.86-.24,1.72-.53,2.57-.84,1.7-.61,3.37-1.33,5-2.07s3.31-1.54,4.95-2.36q4.89-2.48,9.65-5.23c3.16-1.84,6.29-3.74,9.33-5.77A95.36,95.36,0,0,0,61.23,80c.69-.58,1.36-1.18,2-1.81q.48-.47.9-1a8,8,0,0,0,.74-1,2.15,2.15,0,0,0,.22-.47,1,1,0,0,0,0-.21h0s0,0,0,0a.28.28,0,0,0-.1,0,1.7,1.7,0,0,0-.47-.09,6.57,6.57,0,0,0-1.23.08c-.43.06-.86.15-1.3.25a43.14,43.14,0,0,0-5.18,1.64c-.85.32-1.7.65-2.55,1s-1.57.64-2.41,1Z" transform="translate(-14 -55.09)"/><path class="cls-4" d="M181.53,187.26a6.49,6.49,0,1,0,.18-1.51A6.24,6.24,0,0,0,181.53,187.26Z" transform="translate(-14 -55.09)"/><path class="cls-2" d="M181.53,187.26a6.49,6.49,0,1,0,12.28-2.9,6.56,6.56,0,0,1-4.75,6.37c-3.86,1.25-6.47-3.18-7.35-5A6.24,6.24,0,0,0,181.53,187.26Z" transform="translate(-14 -55.09)"/><path class="cls-2" d="M191.8,187.26c.73-.77,0-2.59-.54-2S191.06,188,191.8,187.26Z" transform="translate(-14 -55.09)"/><path class="cls-2" d="M187.28,187.26c.21-.48-1.08-1.12-1-.47S186.93,188.07,187.28,187.26Z" transform="translate(-14 -55.09)"/><path class="cls-2" d="M186.31,183.82c2.18-.61.92-1.89,0-1.42S185.07,184.17,186.31,183.82Z" transform="translate(-14 -55.09)"/><path class="cls-2" d="M190.37,188.76c.5-1.77,0-3.35-2.66-3.43s-3.28-1-2.82-1.93-.93-.77-.93-.77a.72.72,0,0,1,.54,1.08c-.42.89,1.43,2.23,2.8,2A2.6,2.6,0,0,1,190.37,188.76Z" transform="translate(-14 -55.09)"/><path class="cls-2" d="M189.67,184.87c-.73-.81-3.57.07-4.17-.7a1.39,1.39,0,0,0,1.59.54A6.75,6.75,0,0,1,189.67,184.87Z" transform="translate(-14 -55.09)"/><path class="cls-2" d="M184.45,186.35a10.2,10.2,0,0,1-1.12-1.43c-.11-.15-.2-.27-.25-.35l.15-.11.25.35a11.06,11.06,0,0,0,1.08,1.4Z" transform="translate(-14 -55.09)"/><path class="cls-2" d="M191.23,183.91l-.18,0a1.41,1.41,0,0,0-.45-1.48,3.52,3.52,0,0,0-3.32-.67l-.06-.17a3.71,3.71,0,0,1,3.51.7A1.62,1.62,0,0,1,191.23,183.91Z" transform="translate(-14 -55.09)"/><path class="cls-2" d="M192,189.67l-.14-.12c1.45-1.64.65-4.63.64-4.66l.17,0C192.73,185,193.54,188,192,189.67Z" transform="translate(-14 -55.09)"/><path class="cls-2" d="M188.89,191.71l0-.18c1.55-.43,1.81-1.58,2-2.59a5.47,5.47,0,0,1,.24-.83l.17.07a6.44,6.44,0,0,0-.23.8A3,3,0,0,1,188.89,191.71Z" transform="translate(-14 -55.09)"/><path class="cls-3" d="M183.57,182.54l-1.19-.55c-.37-.18-.75-.34-1.13-.5a18.21,18.21,0,0,0-2.35-.85l-.62-.14a3,3,0,0,0-.68-.06,1.46,1.46,0,0,0-.39.07.6.6,0,0,0-.22.12.38.38,0,0,0-.11.11l0,.06,0,.07a.6.6,0,0,0-.05.28.45.45,0,0,0,0,.12s0,.08,0,.11a1.69,1.69,0,0,0,.15.36,4.51,4.51,0,0,0,.39.55,6.42,6.42,0,0,0,.43.48c.29.3.6.58.91.86.62.55,1.28,1.06,1.94,1.56s1.34,1,2,1.43q2.06,1.38,4.2,2.61c1.43.82,2.88,1.61,4.36,2.33a43,43,0,0,0,4.57,1.95c.39.13.79.26,1.2.36a6.21,6.21,0,0,0,.62.14,4.58,4.58,0,0,0,.66.08l.37,0a.84.84,0,0,0,.2-.05l.11,0,.11-.07a.71.71,0,0,0,.19-.23l0-.08a.17.17,0,0,0,0-.07.2.2,0,0,0,0-.07v-.07a1,1,0,0,0-.11-.42,2.89,2.89,0,0,0-.38-.56c-.14-.17-.29-.32-.44-.47a18.09,18.09,0,0,0-1.9-1.62c-.32-.25-.66-.5-1-.73s-.78-.59-1.12-.82l-.11.41,1,.74.95.77a17.5,17.5,0,0,1,1.79,1.64,5.34,5.34,0,0,1,.39.44,2.92,2.92,0,0,1,.29.46.58.58,0,0,1,0,.17h0a.4.4,0,0,1-.15,0h-.25a3.78,3.78,0,0,1-.56-.08l-.57-.14c-.38-.11-.77-.24-1.14-.38-.76-.27-1.51-.59-2.25-.93s-1.48-.68-2.21-1.05c-1.46-.73-2.89-1.51-4.31-2.33s-2.8-1.67-4.16-2.57a43.07,43.07,0,0,1-3.93-2.88c-.31-.26-.61-.53-.89-.81s-.28-.28-.41-.43a4.2,4.2,0,0,1-.33-.44,1.65,1.65,0,0,1-.09-.21.72.72,0,0,1,0-.09h0l0,0a1,1,0,0,1,.21,0,2.64,2.64,0,0,1,.55,0,3.71,3.71,0,0,1,.58.11,17.66,17.66,0,0,1,2.31.73c.39.14.76.29,1.14.45s.7.28,1.08.45Z" transform="translate(-14 -55.09)"/><path class="cls-5" d="M211.37,85.54l-1.44-7.84a1.92,1.92,0,0,1,.76-1.9l12.44-9.09a1.53,1.53,0,0,1,2.42,1l.95,7.68a1.9,1.9,0,0,1-.67,1.7l-11.34,9.53A1.91,1.91,0,0,1,211.37,85.54Z" transform="translate(-14 -55.09)"/><path class="cls-3" d="M212.18,84.77l-1.29-7.06a1.72,1.72,0,0,1,.68-1.71l11.21-8.2a1.38,1.38,0,0,1,2.18.94l.86,6.92a1.75,1.75,0,0,1-.61,1.54L215,85.79A1.74,1.74,0,0,1,212.18,84.77Z" transform="translate(-14 -55.09)"/><path class="cls-2" d="M193.18,88.63h0a5.53,5.53,0,0,1,4.57-6.07l16.65-2.81a5.52,5.52,0,0,1,6.43,5.07l.09,1.36a5.51,5.51,0,0,1-5,5.88l-16.74,1.46A5.53,5.53,0,0,1,193.18,88.63Z" transform="translate(-14 -55.09)"/><path class="cls-5" d="M186.83,106.55l-1.43-9a2.59,2.59,0,0,1,1-2.48l12.44-9.35a1.3,1.3,0,0,1,2.06.85l.52,3.57L204.35,88l-.19,2.2-2.48,1.45.26,3.63a2.59,2.59,0,0,1-.95,2.21l-12.06,9.82A1.3,1.3,0,0,1,186.83,106.55Z" transform="translate(-14 -55.09)"/><path class="cls-3" d="M187.74,105.52l-1.5-8.18a1.72,1.72,0,0,1,.68-1.71l11.63-8.5a1.08,1.08,0,0,1,1.7.73l.92,7.43a1.75,1.75,0,0,1-.61,1.54l-11.08,9.32A1.07,1.07,0,0,1,187.74,105.52Z" transform="translate(-14 -55.09)"/><ellipse class="cls-4" cx="215.98" cy="85.86" rx="4.38" ry="5.1" transform="translate(-22.29 -30.24) rotate(-6.46)"/><path class="cls-3" d="M34.75,164v-16.3l37.33-53.4H94.64v52.22h9.69V164H94.64v15.36H74.44V164Zm41.11-47.49L56,146.53H75.86Z" transform="translate(-14 -55.09)"/><path class="cls-3" d="M122.11,103.05Q130,91.37,147.45,91.36t25.34,11.69q7.86,11.7,7.86,32,0,20.55-7.86,32.25T147.45,179q-17.49,0-25.34-11.69t-7.86-32.25Q114.25,114.75,122.11,103.05ZM158.2,116.7q-2.59-6.44-10.75-6.44T136.7,116.7q-2.59,6.43-2.6,18.37a76.26,76.26,0,0,0,1,13.29,16.88,16.88,0,0,0,3.83,8.5q2.9,3.25,8.57,3.25t8.56-3.25a17,17,0,0,0,3.84-8.5,77.26,77.26,0,0,0,1-13.29Q160.8,123.13,158.2,116.7Z" transform="translate(-14 -55.09)"/><path class="cls-3" d="M191.75,164v-16.3l37.33-53.4h22.56v52.22h9.69V164h-9.69v15.36h-20.2V164Zm41.11-47.49-19.85,30h19.85Z" transform="translate(-14 -55.09)"/><path class="cls-4" d="M91.15,146.53V94.31H68.59l-5.49,7.85L51.52,118.73l-20.26,29V164H71v15.36h20.2V164h9.69V146.53Zm-18.78,0H52.52l9.21-13.93,9-13.61,1.64-2.47Z" transform="translate(-14 -55.09)"/><path class="cls-4" d="M169.3,103.05Q161.44,91.37,144,91.36t-25.34,11.69q-7.86,11.7-7.86,32,0,20.55,7.86,32.25T144,179q17.47,0,25.34-11.69t7.85-32.25Q177.15,114.75,169.3,103.05Zm-12.94,45.31a17,17,0,0,1-3.84,8.5q-2.9,3.25-8.56,3.25t-8.57-3.25a17,17,0,0,1-3.84-8.5,77.39,77.39,0,0,1-.94-13.29q0-11.94,2.6-18.37T144,110.26q8.14,0,10.75,6.44t2.6,18.37A77.26,77.26,0,0,1,156.36,148.36Z" transform="translate(-14 -55.09)"/><path class="cls-4" d="M248.15,146.53V94.31H225.59l-37.33,53.4V164H228v15.36h20.2V164h9.69V146.53Zm-18.78,0H209.52l19.85-30Z" transform="translate(-14 -55.09)"/><path class="cls-2" d="M151.22,178.44s-4.32-12.08-5.44-14.41,6.52-1.1,7.9-7.16H128.24s-5.09,3.21,0,8.3,13.11,15.27,13.11,15.27Z" transform="translate(-14 -55.09)"/><path class="cls-6" d="M139.35,106.2c-.78-2-8.35-1-7.59,5,1.35,10.62-8,13.08-7.73,20.5,0,0,3.07-6.45,6.58-8.23,0,0-5.36,7.07-2.61,10.94,2.15,3,6.12,2.66,11,1.71S139.35,106.2,139.35,106.2Z" transform="translate(-14 -55.09)"/><path class="cls-7" d="M110.37,194.73l13.81-4.85s-5.76-25-5.5-29.45,25-4.78,25-4.78V143.51l-6.81.37-1.48,2.39s-28.44.44-31.37,10S110.37,194.73,110.37,194.73Z" transform="translate(-14 -55.09)"/><path class="cls-8" d="M134,122c2.76-2.71,10-3.78,14.43,0,2.91,2.48.42,14.86,3.4,21.07l-15,.82s0-5.64-1.48-9S131.92,124,134,122Z" transform="translate(-14 -55.09)"/><path class="cls-9" d="M141.13,109.71s.43,6.78,1.69,10.38c-1.57,1.37-3.61,1.85-5,1a18,18,0,0,0-.36-6.66Z" transform="translate(-14 -55.09)"/><path class="cls-9" d="M139.05,106.84a3.72,3.72,0,0,0-4.5,2.16c-.54,1.61.39,5.92,1.26,6.65,1.08.9,4.14.54,5.22-2.7C141.67,111.05,141.13,107.41,139.05,106.84Z" transform="translate(-14 -55.09)"/><path class="cls-4" d="M141.23,111.15h-.18a1.26,1.26,0,0,0-.35-1.09,1.59,1.59,0,0,0-1.23-.25h-.9v-.19h.87a1.78,1.78,0,0,1,1.38.3A1.4,1.4,0,0,1,141.23,111.15Z" transform="translate(-14 -55.09)"/><path class="cls-4" d="M134.34,112.61a1.47,1.47,0,1,1,1.47-1.46A1.47,1.47,0,0,1,134.34,112.61Zm0-2.74a1.28,1.28,0,1,0,1.28,1.28A1.27,1.27,0,0,0,134.34,109.87Z" transform="translate(-14 -55.09)"/><path class="cls-4" d="M137.51,112a1.47,1.47,0,1,1,1.46-1.47A1.47,1.47,0,0,1,137.51,112Zm0-2.75a1.28,1.28,0,1,0,1.28,1.28A1.28,1.28,0,0,0,137.51,109.29Z" transform="translate(-14 -55.09)"/><rect class="cls-4" x="135.34" y="110.03" width="0.99" height="0.18" transform="translate(-31.82 -28.44) rotate(-10.52)"/><path class="cls-8" d="M145.12,120.14c5.11.81,13.5,4.24,13.5,4.24l-10.79-11.44,2.67-3.27s17.17,11.38,14.91,18.49c-1.52,4.77-14.81.93-17,0S145.12,120.14,145.12,120.14Z" transform="translate(-14 -55.09)"/><path class="cls-8" d="M118.68,133.17l3.73-.91,2.49,5.27c3-5.74,5.61-12.87,9.11-15.54l1.34,9.87s-6.54,12.23-10.86,12.44S118.68,133.17,118.68,133.17Z" transform="translate(-14 -55.09)"/><path class="cls-6" d="M133.2,109.46s3.83-5.48,5.85-2.62a2.06,2.06,0,0,1,2.64-.14c4.24,3.24,1.78,15.67,15,15.67,0,0-3.46,3.24-7.77,2-4-1.14-8-4.29-7.77-10.84.09-2.24-.32-3.83-1-3.83s-1.94-2.09-1.94-2.09S135.29,109.6,133.2,109.46Z" transform="translate(-14 -55.09)"/><path class="cls-6" d="M137,193.12l9.72-11.56-15.62-21.09s15.51.89,20.76-1.42,3.59-11.93,0-16l-15,.82v2.37s-24.21-.16-26.37,9.25C108.53,163.9,137,193.12,137,193.12Z" transform="translate(-14 -55.09)"/><path class="cls-10" d="M145.78,182.65s4,3.84,4,4.77-6.31,10.48-7.54,11.25.48-10.2,0-11.81Z" transform="translate(-14 -55.09)"/><path class="cls-10" d="M120.54,191s1.65,5.11,1.21,5.93-10.58,6.15-12,6.23,5.33-8.71,5.69-10.35Z" transform="translate(-14 -55.09)"/><path class="cls-9" d="M150.21,110s-4.49-4-5.09-3.33c-.24.27,1.58,1.44,1.58,1.44s-3.19-1.42-3.55-1.16,3.12,1.75,3.12,1.75-3.33-1-3.58-.63,3,1.57,3,1.57-2.47-.48-2.78-.22,3.14.82,3.81,1.49-2.52-.18-2.47.45,3.12.41,4.11.93Z" transform="translate(-14 -55.09)"/><path class="cls-7" d="M125.36,129.49l-2.68,1.17a.66.66,0,0,1-.84-.27l-3.27-5.53a.67.67,0,0,1,.31-1l2.68-1.18a.67.67,0,0,1,.84.27l3.27,5.54A.67.67,0,0,1,125.36,129.49Z" transform="translate(-14 -55.09)"/><path class="cls-11" d="M124.91,129.1l-2.31,1a.57.57,0,0,1-.72-.23l-2.82-4.77a.57.57,0,0,1,.27-.81l2.31-1a.58.58,0,0,1,.72.24l2.81,4.76A.57.57,0,0,1,124.91,129.1Z" transform="translate(-14 -55.09)"/><path class="cls-9" d="M119.51,132.94s-1.2-5.79.2-8c1.1-1.73,0,2.84,0,2.84s1.43-3.86,2-3.36c.44.37-1.43,3.75-1.43,3.75s2.26-4.08,2.68-3.34c.25.46-2,3.82-2,3.82s2-2.32,2.25-1.9-2.15,1.77-1.09,5.55Z" transform="translate(-14 -55.09)"/><path class="cls-9" d="M140.45,110.57a1.08,1.08,0,0,1,1.39-.54c1.08.29-.23,2.68-1,2.49" transform="translate(-14 -55.09)"/><rect class="cls-4" x="139.68" y="192.1" width="11.5" height="0.18" transform="translate(-108.22 162.68) rotate(-58.98)"/><rect class="cls-4" x="109.66" y="198.81" width="12.19" height="0.18" transform="translate(-93.66 22.25) rotate(-27.92)"/><path class="cls-4" d="M142.4,184.24c-.91-1.05-22.32-25.84-20.36-28.94.49-.77,5.36-1,13.33-1.29,6.29-.23,12.79-.46,14.37-1.22,3.12-1.48,0-8.8,0-8.87l.16-.07c.14.3,3.24,7.55,0,9.11-1.61.77-8.13,1-14.44,1.23s-12.71.46-13.18,1.2c-1.89,3,20.12,28.47,20.34,28.73Z" transform="translate(-14 -55.09)"/><polygon class="cls-12" points="120.7 78.05 118.64 71.6 118.64 81.4 120.7 78.05"/><polygon class="cls-12" points="136.21 73.68 131.87 71.11 136.13 76.62 136.21 73.68"/><polygon class="cls-12" points="110.9 82.44 112.57 85.91 112 80.27 110.9 82.44"/><polygon class="cls-12" points="144.62 69.28 148.73 73.86 142.17 68.33 144.62 69.28"/><polygon class="cls-13" points="128.24 131.77 131.78 127.55 132.85 128.62 128.24 135.59 128.24 131.77"/><polygon class="cls-13" points="101.41 137.75 106.54 135.94 107.08 137.75 99.6 140.96 101.41 137.75"/><path class="cls-2" d="M70.73,119l-9,13.61c-3.8-4.83-7.53-10-10.21-13.87L63.1,102.16A7.26,7.26,0,0,1,64.42,104C65.22,105.52,67.93,111.74,70.73,119Z" transform="translate(-14 -55.09)"/><path class="cls-2" d="M77.25,147c-1,.5-2.7-.5-4.88-2.44V123.32C76.35,134.15,79.79,145.66,77.25,147Z" transform="translate(-14 -55.09)"/><path class="cls-4" d="M136.43,118.49a1.18,1.18,0,0,0-.62.64,1.13,1.13,0,0,0-.61-.64,1.18,1.18,0,0,0,.61-.65A1.23,1.23,0,0,0,136.43,118.49Z" transform="translate(-14 -55.09)"/><path class="cls-4" d="M186.72,142.3a1.21,1.21,0,0,0-.62.64,1.25,1.25,0,0,0-.62-.64,1.18,1.18,0,0,0,.62-.64A1.15,1.15,0,0,0,186.72,142.3Z" transform="translate(-14 -55.09)"/><path class="cls-4" d="M124.23,148.07a1.12,1.12,0,0,0-.62.64,1.18,1.18,0,0,0-.62-.64,1.23,1.23,0,0,0,.62-.65A1.16,1.16,0,0,0,124.23,148.07Z" transform="translate(-14 -55.09)"/><path class="cls-4" d="M164.25,129.57a1.18,1.18,0,0,0-.62.64,1.15,1.15,0,0,0-.62-.64,1.21,1.21,0,0,0,.62-.64A1.25,1.25,0,0,0,164.25,129.57Z" transform="translate(-14 -55.09)"/><path class="cls-4" d="M169.05,146a2.41,2.41,0,0,0-1.26,1.31,2.35,2.35,0,0,0-1.26-1.31,2.41,2.41,0,0,0,1.26-1.31A2.48,2.48,0,0,0,169.05,146Z" transform="translate(-14 -55.09)"/><path class="cls-4" d="M138.7,126.61a2.4,2.4,0,0,0-1.27,1.31,2.35,2.35,0,0,0-1.26-1.31,2.38,2.38,0,0,0,1.26-1.31A2.43,2.43,0,0,0,138.7,126.61Z" transform="translate(-14 -55.09)"/><path class="cls-4" d="M119.16,128.6a1.72,1.72,0,0,0-.92,1,1.72,1.72,0,0,0-.92-1,1.77,1.77,0,0,0,.92-1A1.77,1.77,0,0,0,119.16,128.6Z" transform="translate(-14 -55.09)"/><path class="cls-4" d="M184.89,126.16a2.45,2.45,0,0,0-1.26,1.31,2.48,2.48,0,0,0-1.26-1.31,2.41,2.41,0,0,0,1.26-1.31A2.38,2.38,0,0,0,184.89,126.16Z" transform="translate(-14 -55.09)"/></svg>