<svg xmlns="http://www.w3.org/2000/svg" viewBox="0 0 141.31 34.07">
  <defs>
    <style>
      .cls-1 {
        fill: #fff;
      }

      .cls-2, .cls-3 {
        fill: #ff4d5a;
      }

      .cls-3, .cls-4 {
        font-size: 30.41px;
        font-family: Movement-Regular, Movement;
      }

      .cls-4 {
        fill: #072142;
      }

      .cls-5 {
        letter-spacing: -0.02em;
      }

      .cls-6 {
        letter-spacing: 0.01em;
      }

      .cls-7 {
        letter-spacing: 0.04em;
      }
    </style>
  </defs>
  <g id="pennello">
    <g>
      <path class="cls-1" d="M137.19,84.33a.87.87,0,0,1,.33-.21c.06,0,.15,0,.16-.11,0-.22.2-.19.35-.17a4.6,4.6,0,0,1,1.09.28,1.54,1.54,0,0,0,.67.1c.06,0,.17,0,.15-.08s-.11-.07-.18,0-.23.1-.38,0a.48.48,0,0,1,.41-.17,2.35,2.35,0,0,1,.9.16,2.07,2.07,0,0,0,.64.16c-.13-.21,0-.26.17-.24s.38-.05.55.15.31,0,.48,0a1.67,1.67,0,0,1,.86,0c.09,0,.12,0,.11-.09s0-.11.06-.13a.1.1,0,0,1,.12.09c0,.19.15.12.27.06a1.16,1.16,0,0,1,1.13,0,.36.36,0,0,0,.27,0c1.63-.09,3.26-.14,4.9-.09,2.27.07,4.52.26,6.77.52l3.76.42a.19.19,0,0,1,.12,0,3.5,3.5,0,0,1-1.16.06c-1.34-.09-2.66-.34-4-.47a6.59,6.59,0,0,0-1.09,0l1.6.26c1.32.2,2.65.35,4,.49s2.56.25,3.84.39c1.78.18,3.56.39,5.33.68.14,0,.21.07.18.22a.24.24,0,0,0,.15.28s.12,0,.1.1-.09.05-.14.05-.14-.05-.17,0,0,.14.1.19a1,1,0,0,0,.56.17l1.15.1a.61.61,0,0,1,.42.16c-.71,0-1.42-.1-2.12,0,.73.21,1.47.43,2.22.59l.72.14c.06,0,.15,0,.15.09s-.07.11-.14.13a1.12,1.12,0,0,1-.6,0c-.19,0-.33,0-.43.15s-.21.12-.35.16a2.32,2.32,0,0,0,.77.11c.12,0,.34,0,.34.1s-.22.14-.35.16c-.29.06-.58-.06-.92,0a4.81,4.81,0,0,0,.75.22c-.09.11-.19.08-.29.09a8.45,8.45,0,0,1-2.13-.25,12.37,12.37,0,0,0-1.71-.25h-.28a.29.29,0,0,0,.23.16l.4,0c.08,0,.24,0,.22.09s-.16.11-.28.08l-.36-.09c-.05,0-.11,0-.12,0a.09.09,0,0,0,.08.1c.36,0,.38.2.33.47s.06.25.25.26c1.36.09,2.71.3,4.07.47l1.71.22a.17.17,0,0,1,.17.07,5.49,5.49,0,0,1-2.18.13,1.51,1.51,0,0,0,.63.25,5.18,5.18,0,0,0,1.18.1c.06,0,.14,0,.17,0s0,.13-.07.18a1,1,0,0,1-.8.38c-.09,0-.19,0-.31,0,.09.18.26.17.39.22s.12,0,.13.07-.07.09-.13.11a3.11,3.11,0,0,1-1.63.09c-.61-.09-1.22-.18-1.83-.25a7.81,7.81,0,0,0,1.17.33,28.29,28.29,0,0,1-5.57-.4c.12-.16.28-.12.42-.19a16.33,16.33,0,0,0-2-.07.61.61,0,0,0,.35.07l.33,0s.12,0,.13.08-.05.09-.11.1-.1,0-.1.07.05.07.1.1a1.81,1.81,0,0,0,.66.14c.24,0,.49,0,.73,0a.67.67,0,0,1,.45.17,3,3,0,0,0-1,0,.39.39,0,0,0,.24.1c1.28.27,2.58.41,3.88.59l.14,0c.3,0,.48.13.49.45a11.55,11.55,0,0,1-1.82-.13c.28.18.59.13.82.27,0,.09-.12.08-.19.08l-3.08,0c-.15,0-.3,0-.45,0s-.1,0-.11.06,0,.08.08.11a.82.82,0,0,0,.35.13l.77.12c-.17-.21-.41-.19-.64-.27a2.06,2.06,0,0,1,.83,0c.89.14,1.75.38,2.65.49l.49,0s.11,0,.09.08-.05.05-.09.05a2.08,2.08,0,0,0-.43,0l1.75.53a36,36,0,0,1,4.62,1.59,9.66,9.66,0,0,1,2.82,1.88.81.81,0,0,1,.32.74.29.29,0,0,0,.18.36c.08,0,.09.08.05.14a.64.64,0,0,0,.07.63,2.45,2.45,0,0,1,.24.52.28.28,0,0,1-.14.35c-.24.14-.27.26-.11.48l.07.09c.07.09.15.19.09.31s-.2.12-.31.13c-.67,0-.67,0-.67.66,0,.26,0,.53,0,.79s.05.22.21.23a3.4,3.4,0,0,1,.84.11.52.52,0,0,1,.2.07,1.65,1.65,0,0,0,.92.48l.06,0c.1,0,.28.07.27.19s-.2.07-.31.09h-.12c-.05,0-.12,0-.13.07s.05.1.11.12.26.07.24.25.09.08.15.07c.33,0,.67,0,1,0a5.17,5.17,0,0,1,1.36.09,1.06,1.06,0,0,1-.55.13l-1.06.11c-.08,0-.19,0-.22.1s.07.13.12.19.11.24-.08.29a6,6,0,0,1-.84.09c-.73,0-1.46,0-2.18,0a3.1,3.1,0,0,0-.82.15,1.09,1.09,0,0,0,.45.19,5.79,5.79,0,0,0,1.76.13,10.18,10.18,0,0,1,2,0,.83.83,0,0,1,.32.08,1.32,1.32,0,0,1-.54.1,26.63,26.63,0,0,1-4.19.08.75.75,0,0,0-.56.07c.08.06.21.09.16.21s-.15.1-.24.11a5.59,5.59,0,0,1-.59.08l2.44.27,1,.1c.06,0,.13,0,.14.06s-.07.08-.12.09a2.28,2.28,0,0,1-.64,0c-.14,0-.37,0-.39.12s.22.13.35.16a17.27,17.27,0,0,0,2.38.34l1.79.19a.07.07,0,0,1,.08.06,1.5,1.5,0,0,1-.54.18A7.19,7.19,0,0,1,181,110l-3.58,0a6.35,6.35,0,0,0,1.05.23c.9.15,1.81.25,2.72.33.09,0,.22,0,.23.11s-.09.17-.19.21a1.73,1.73,0,0,1-.68,0,2.1,2.1,0,0,0-.5,0s-.12,0-.13.07.06.08.11.09a6.12,6.12,0,0,0,.95.18,8.54,8.54,0,0,1,1.42.3c.08,0,.22,0,.22.13s-.14.11-.22.15a4.36,4.36,0,0,1-1.59.3l-2.63.06a.2.2,0,0,0-.11,0,2.16,2.16,0,0,0,.62.09c.68,0,1.36,0,2,0a3.31,3.31,0,0,1,1.76.48c.29.2.31.27.08.54a1.84,1.84,0,0,1-1.31.59c-.59.07-1.18.07-1.78.09a3.42,3.42,0,0,0-1.26.26c-.07,0-.18,0-.18.13s.11.12.19.15a1.62,1.62,0,0,0,.79.07l.68-.07a.81.81,0,0,1,.43.08,2.42,2.42,0,0,1-.85.15c-.39,0-.79,0-1.18,0-.08,0-.33-.11-.18.16,0,.06-.07.07-.12.08a2.22,2.22,0,0,1-.63,0,3,3,0,0,0-1.29,0,.69.69,0,0,1-.35,0,5,5,0,0,0-1.49,0,11.67,11.67,0,0,1-2,0c-.78,0-1.56-.08-2.34-.13-1-.06-2-.14-3-.21l-2.15-.15c-1.21-.07-2.41-.16-3.62-.21-.8,0-1.61,0-2.4,0a1.46,1.46,0,0,0,1.09.61c.17,0,.18.06.06.17l.37.05c.14,0,.3,0,.3.21s.15.13.24.16l.86.26c.06,0,.15,0,.14.1s-.1.09-.17.09a4.34,4.34,0,0,1-.8-.08c-.06,0-.14,0-.16,0s.07.1.14.11.37.07.14.29c0,0,0,.09,0,.13.12.2,0,.27-.18.32a1.11,1.11,0,0,1-.54,0c-.12,0-.25-.06-.25-.19s-.07-.16-.19-.17a7.45,7.45,0,0,0-1.06-.09,1.23,1.23,0,0,0-.19,0c-.07,0-.19,0-.18.09s.12.09.19.09h.5a1.51,1.51,0,0,1,.3,0,3.46,3.46,0,0,1-.91.14,23.59,23.59,0,0,1-4.2-.26c-1.35-.15-2.69-.34-4.05-.39-1.09,0-2.18-.07-3.27-.13s-2.18-.17-3.28-.25a34.12,34.12,0,0,0-3.78-.14c.32.12.68,0,1,.18,0,.11-.1.08-.16.08-1.53-.06-3.06-.08-4.59-.17-1.33-.08-2.66-.22-4-.2a8.78,8.78,0,0,0-1.84.19.35.35,0,0,1-.44-.16.31.31,0,0,0-.28-.12c-1.33,0-2.64-.13-4-.17a6.08,6.08,0,0,0-1.8.17,2.69,2.69,0,0,1-.85,0l-1.63-.12c0,.09.12,0,.08.13s-.09,0-.15,0a3,3,0,0,1-.42,0c-1.51,0-3-.06-4.52-.12-.75,0-1.5,0-2.25,0-1.63,0-3.26.1-4.88.06l-.38-.05a1.42,1.42,0,0,1,.6-.13,24.72,24.72,0,0,1,3.22,0c.57,0,1.15,0,1.72,0-.63-.09-1.27-.12-1.91-.16-1.37-.08-2.75,0-4.12,0s-2.8,0-4.19,0a.59.59,0,0,0-.39.1.52.52,0,0,1-.44.09,21.48,21.48,0,0,0-6.6.12.36.36,0,0,1-.33-.07.81.81,0,0,0-.54-.19,12.42,12.42,0,0,0-1.46.11.86.86,0,0,0,.35.12,1,1,0,0,1,.3.08,1.58,1.58,0,0,0,1,.21c3.56,0,7.13,0,10.69,0,1.07,0,2.13,0,3.19.07a2.69,2.69,0,0,0,1.05-.17c.06,0,.13-.07.2,0s.39.14.59.21a.15.15,0,0,0,.13,0,2.06,2.06,0,0,1,1.1-.09s.12,0,.11.08-.08.07-.13.06l-.3,0s0,0,0,0,.25,0,.22.15-.16.09-.25.09c-1.48-.09-3-.13-4.43-.17-.59,0-1.19,0-1.78,0-1.3,0-2.61,0-3.91,0-2.31,0-4.61.09-6.92.09a.37.37,0,0,0-.29.11,1,1,0,0,1-.64.17.08.08,0,0,1-.09-.06c0-.06,0-.1.07-.11a1.21,1.21,0,0,0,.18-.05c-.15,0-.3,0-.46-.06l-1.4,0c-1.24,0-2.49,0-3.74-.1-.77,0-1.54-.15-2.31-.23a16.13,16.13,0,0,0-2.78-.1q-1.35.06-2.7.15c-1,.08-1.92.14-2.88.17h-.33s-.11,0-.12,0c-.09-.28-.3-.11-.46-.11-1,0-2.1,0-3.15,0-.69,0-1.37,0-2.06,0-1.25,0-2.5,0-3.74,0-.32,0-.63,0-1,.07a1.29,1.29,0,0,1-.44,0c-.06,0-.15,0-.14-.09s.1,0,.16,0a14.31,14.31,0,0,0,1.93-.38c-1.08-.07-2.14.22-3.24.19,0-.09.09-.09.14-.1a8.17,8.17,0,0,1,1.55-.23,18.29,18.29,0,0,0,2.66-.26c.1,0,.21,0,.22.12s.09.09.16.09a8.68,8.68,0,0,0,1.34-.13s.12,0,.14-.08c.1-.21.31-.24.5-.29a11.07,11.07,0,0,1,2.07-.27c1.69-.08,3.39-.14,5.08-.24,1.53-.09,3.06-.2,4.58-.31l4.63-.35c.42,0,.85,0,1.27-.11-.17,0-.34,0-.51-.06a26.58,26.58,0,0,0-4.09.07c-1.18.11-2.36.19-3.54.29-1,.09-2,.11-3,.12a1,1,0,0,1-.24,0,2.1,2.1,0,0,1,.7-.16c1-.13,2-.16,3.07-.19a23.2,23.2,0,0,0,2.36-.18c.12,0,.23,0,.19-.21s.09-.22.12-.34.19-.07.29-.11.39,0,.41-.23c0-.07.09,0,.14,0a3.37,3.37,0,0,0,1.86.15c.06,0,.12,0,.12-.08s.1-.11.17-.19H86.3a1,1,0,0,1,.52-.3c-1.84,0-3.62,0-5.41,0-.79,0-1.58,0-2.36.1l-.66.06c-.06,0-.14,0-.16,0-.13.22-.34.14-.52.13a31.12,31.12,0,0,0-4.73.26c-1.18.15-2.36.28-3.55.42a.82.82,0,0,1-.21,0,3,3,0,0,1,.75-.26,21,21,0,0,1,3.44-.51c1.41-.12,2.82-.14,4.23-.21.15,0,.26,0,.28-.21s.09-.1.17,0a1.32,1.32,0,0,0,.85.13,8.69,8.69,0,0,1,1-.12c.12,0,.16-.06.18-.17a.18.18,0,0,1,.27-.13,4,4,0,0,0,1.62.09,2.58,2.58,0,0,1,1.29.2.21.21,0,0,0,.27,0l.23-.19a6.1,6.1,0,0,0-1.33-.19,15,15,0,0,0-2.32.08c-.12,0-.25,0-.26-.14s0-.1-.06-.07c-.17.22-.31,0-.46,0a4.14,4.14,0,0,0-1.06.07,1.5,1.5,0,0,1-.47,0,5.67,5.67,0,0,0-1.42,0c.1.11.24,0,.36.14a41,41,0,0,0-6.92.33.46.46,0,0,1,.41-.27,8.62,8.62,0,0,1,1.53-.13,3.22,3.22,0,0,0,1-.07,15.7,15.7,0,0,1,2.25-.35l.14,0c.14,0,.16-.09,0-.18a1.08,1.08,0,0,0-.6-.23l-.73-.09s-.13,0-.13-.07.05-.09.1-.12a2.66,2.66,0,0,1,1-.25c.52,0,1,0,1.56-.09a1.13,1.13,0,0,0,.56-.21.46.46,0,0,1,.4-.09l.33.07c.28.06.28.06.22-.21a.19.19,0,0,1,0-.07c-.06-.37-.08-.4-.48-.45-.2,0-.41,0-.62,0s-.16,0-.17-.07.09-.1.16-.11l.24,0c.06,0,.13,0,.14-.1s-.09-.07-.14-.07c-.56,0-1.11,0-1.66,0-.9,0-1.8.11-2.7.16l-3.28.22c-.42,0-.85,0-1.3,0,.05-.1.12-.09.18-.11a19.7,19.7,0,0,1,2.75-.35c1.45-.1,2.91-.16,4.37-.28a.56.56,0,0,0,.52-.39c0-.11,0-.14-.1-.14s-.47,0-.71,0-.6,0-.9,0a.29.29,0,0,1-.2-.08,1.08,1.08,0,0,1,.55-.17c.52-.08,1,0,1.58-.09a1.76,1.76,0,0,0,.67-.18c-.08-.1-.18-.07-.26-.07-.73,0-1.46.07-2.19.15a38.6,38.6,0,0,1-5.26.43c-.24,0-.49,0-.77,0a.41.41,0,0,1,.27-.1c1.88-.22,3.77-.36,5.66-.51,1.17-.09,2.34-.2,3.51-.31.3,0,.39-.1.39-.39s.07-.16.18-.12l.35.15c.15.07.31.18.46-.07-.05.22,0,.24.2.21a13.43,13.43,0,0,1,1.42,0c.22,0,.44,0,.66,0a.71.71,0,0,0,.48-.25c.07-.09.16-.11.2,0s.22.19.38.17c.7-.08,1.4-.15,2.1-.24,1.2-.14,2.41-.26,3.63-.29a.5.5,0,0,0,.4-.15c.1-.11.23-.09.36-.08a12.27,12.27,0,0,0,2.1,0l1.06-.1a.36.36,0,0,0-.28-.11c-.09,0-.19,0-.2-.1s-.16-.15-.3-.14a5.22,5.22,0,0,1-1.58.07.19.19,0,0,0-.11,0c-.08.35-.4.06-.58.21a1.26,1.26,0,0,1-.71.14,3.32,3.32,0,0,0-1.33.13.17.17,0,0,1-.14,0,2.55,2.55,0,0,0-1.76-.15,18.92,18.92,0,0,1-4,.35,21.75,21.75,0,0,0-3.52.21c-.11,0-.2,0-.25.14s-.1.08-.18.07a23.07,23.07,0,0,0-4.7,0c-2,.13-3.89.4-5.83.64-.31,0-.61.07-.92.09-.09,0-.23.06-.26-.09s0-.27.15-.34a12.16,12.16,0,0,1,1.45-.45,26,26,0,0,1,4.14-.59c1.77-.15,3.56-.16,5.33-.42,1.56-.23,3.13-.23,4.69-.36s3-.24,4.44-.34c1-.08,2.08-.13,3.12-.2a4.12,4.12,0,0,0,1.66-.31.39.39,0,0,1,.28,0,10,10,0,0,0,2.73.06c1.14-.1,2.27-.28,3.43-.27a4.48,4.48,0,0,0-.88-.14c-.39,0-.77-.1-1.16-.13-.21,0-.27-.08,0-.27l-.53,0c-.82.07-1.65,0-2.47,0h-.28c-.06,0-.14,0-.14.09a.12.12,0,0,0,.14.1l.28,0c.08,0,.2,0,.2.09s-.11.1-.18.1l-.87-.07c-.33,0-.65-.07-1-.06,0,.05.13.13-.05.14-.35,0-.69.05-1,.07a17.06,17.06,0,0,1-1.75.06.23.23,0,0,1-.19-.05c.15-.11.34-.06.52-.12a5.89,5.89,0,0,0-1.78,0c-.69.08-1.39.2-2.09.24a1.89,1.89,0,0,1-.62-.08,1.36,1.36,0,0,1,.52-.09l6.27-.61,2.8-.26c.06,0,.15,0,.18,0s0-.1-.1-.13,0-.12.05-.15a.45.45,0,0,1,.28,0,.82.82,0,0,0,.39,0,1.73,1.73,0,0,0-1.09-.14l-2.41.17-3.59.26-3,.24-.66.07a4.79,4.79,0,0,0,1,.18,7,7,0,0,0,1,.06,1.91,1.91,0,0,1-.74.14,20.89,20.89,0,0,1-2.37-.11,16.2,16.2,0,0,0-2.2.05h-.07c-.13,0-.29.06-.39,0s0-.23,0-.35.06-.22.22-.21a.65.65,0,0,0,.43-.09c.1-.08.1-.14,0-.19l-.33-.11a1.22,1.22,0,0,1-.37-.16c-.24-.18-.22-.41,0-.53a3.1,3.1,0,0,1,.84-.24.49.49,0,0,0,.23-.11l-.6-.05a2.18,2.18,0,0,1-.63-.07c-.15-.06-.31-.13-.33-.3s.15-.21.28-.26.07,0,.07-.1a2.71,2.71,0,0,0-.41,0c-.06,0-.11,0-.16,0a.12.12,0,0,1,0-.15c.06-.11.15-.19.09-.34s.09-.09.15-.11a3.06,3.06,0,0,0,.64-.35c.09-.06.14-.12.07-.24s0-.28.15-.24a2.5,2.5,0,0,0,1.12-.1c.44-.1.86-.23,1.29-.36-1,.09-2,.26-3,.45-2.44.48-4.85,1.09-7.28,1.59-.9.19-1.81.36-2.72.5a.14.14,0,0,1-.15,0,2.05,2.05,0,0,1,.57-.34,9.31,9.31,0,0,1,2.27-.62,13.47,13.47,0,0,0,2.06-.51s.09,0,.14,0-.28.17-.4.29c2.59-.32,5.09-1,7.65-1.47a1.75,1.75,0,0,0-.91-.07,6.51,6.51,0,0,0-1.24.26.38.38,0,0,1-.42-.08.35.35,0,0,0-.34-.08c-1.43.22-2.82.59-4.23.9a20.81,20.81,0,0,1-4,.55s-.11,0-.15,0,0-.1,0-.14.07-.09,0-.14-.1,0-.15,0l-.29,0c-.05,0-.12,0-.14,0s.06-.08.11-.11a4.21,4.21,0,0,1,1.35-.4,12.21,12.21,0,0,0,3.21-.76,6.26,6.26,0,0,1,2-.33,5.1,5.1,0,0,0,1.51-.27,2.42,2.42,0,0,0,.8-.53,5.14,5.14,0,0,0-1,.11,56.91,56.91,0,0,0-5.79,1.28l-2.22.57c-.3.07-.32,0-.25-.23s0-.21-.16-.19c-.4.07-.5-.09-.62-.47a.52.52,0,0,1,.21-.62,2.79,2.79,0,0,1,1.13-.56c.42-.13.85-.23,1.27-.4a.52.52,0,0,0-.5,0,2,2,0,0,1-.76.22c-.08,0-.21,0-.24,0s.1-.13.16-.17a6.24,6.24,0,0,1,1.38-.59c.77-.24,1.56-.42,2.3-.71a3.08,3.08,0,0,0,.77-.43l-.49,0-2.67.36a11.67,11.67,0,0,1-2,.13c-.11,0-.24,0-.29-.09s0-.23.1-.33l.08-.09c-.34.06-.41,0-.38-.31a2.17,2.17,0,0,1,.53-1.34,1.15,1.15,0,0,1,.55-.37c.08,0,.18-.08.08-.16s0-.28.13-.35a26.32,26.32,0,0,1,3.39-1.23,44.39,44.39,0,0,1,5.1-1.19c.42-.07.85-.08,1.27-.17a2.48,2.48,0,0,0,.94-.41c.08-.06.15-.12.13-.23s-.12-.11-.2-.13l-.07,0c-.08,0-.17,0-.2-.1s.08-.13.13-.17a4.71,4.71,0,0,1,1.87-.76c.78-.17,1.59-.25,2.38-.37.35-.05.42-.14.38-.48,0-.1-.09-.09-.16-.09a5.43,5.43,0,0,0-.89.12,5.35,5.35,0,0,1-1.64.2.79.79,0,0,1-.44-.12,5.47,5.47,0,0,1,1.81-.45.93.93,0,0,1,.24,0c.18.09.29,0,.36-.14S84,87,84.06,87a13.72,13.72,0,0,1,2.38-.19,10.55,10.55,0,0,0,3.17-.36c1.51-.29,3-.51,4.56-.71s3-.35,4.44-.49l3.77-.33,3.89-.35,1.7-.15c.15,0,.3,0,.37-.2s.14-.1.24-.12c1.54-.21,3.09-.41,4.65-.55s3.2-.28,4.81-.37c2.21-.13,4.42-.14,6.63-.12a.39.39,0,0,1,.28,0c0,.12-.13.06-.19.14a.94.94,0,0,0,.7.26c1.16.09,2.32,0,3.48,0a8.49,8.49,0,0,1,1.95.19.45.45,0,0,0,.23,0,1.88,1.88,0,0,1,1.34,0s.08,0,.13,0a.51.51,0,0,1,.67.13c.06.06.12,0,.17,0a2.78,2.78,0,0,1,1.43-.09c.12,0,.2,0,.15.19s0,.12.08.13.1,0,.09-.1.11-.17.23-.18c.51,0,1,0,1.52.06h.49c.07,0,.17,0,.19.06s-.07.13-.14.16S137.23,84.14,137.19,84.33ZM60.26,87.88l.54,0a.73.73,0,0,1,.57.16.47.47,0,0,0,.46.08,64.37,64.37,0,0,1,7.24-1c2.78-.28,5.56-.51,8.32-.88l1.73-.26a.18.18,0,0,0-.13,0c-1.47.13-2.95.25-4.42.39-2.81.26-5.62.54-8.46.57H65.9s-.07,0-.05.07a.1.1,0,0,0,.07.06l.18,0c.1,0,.19,0,.19.09s-.08.1-.17.09a4.29,4.29,0,0,0-1.19.09,1.49,1.49,0,0,1-.75,0c.21-.08.43,0,.66-.11A17.5,17.5,0,0,0,60.26,87.88ZM52.6,102.1c.89,0,1.77,0,2.65,0,1.46,0,2.93-.13,4.38-.25,1.9-.14,3.79-.26,5.7-.31.62,0,1.24,0,1.86-.08.09,0,.21,0,.2-.09s-.13-.07-.22-.07a.48.48,0,0,0-.12,0c-1.54-.05-3.07,0-4.6.09-.72,0-1.43.06-2.14.1-1.54.08-3.08.17-4.62.31C54.66,101.85,53.63,101.94,52.6,102.1Zm7.14,6.33a4.51,4.51,0,0,1-1.05-.16,8.45,8.45,0,0,1,1-.24,56.22,56.22,0,0,0-9.06.34,13.77,13.77,0,0,0,1.5.11c1.7,0,3.38-.2,5.07-.25a6,6,0,0,1,1.27,0c0,.11-.23.11-.18.21s.22.11.34.12A1.73,1.73,0,0,0,59.74,108.43Zm-.53-1.14c-1.61,0-3.23,0-4.84.13a17.53,17.53,0,0,0-1.93.22c-.08,0-.22,0-.17.1a.56.56,0,0,0,.53.17,3.87,3.87,0,0,1,1.18-.16,6.8,6.8,0,0,0,1.5-.07,5.1,5.1,0,0,1,1.46-.07A7.55,7.55,0,0,0,59.21,107.29Zm-.11,1.92-.25-.24a.25.25,0,0,0-.28-.06,4.17,4.17,0,0,1-1.27.14c-.72,0-1.43-.07-2.14,0-.47,0-.52.07-.37.4.08.18.24.2.43.15a1.71,1.71,0,0,0,.38-.13c.18-.08.32,0,.47,0s.16-.2.39-.17.53,0,.8,0A8.76,8.76,0,0,0,59.1,109.21ZM55.3,88.64a31.56,31.56,0,0,0,4.87-.36c-.24,0-.48,0-.72,0-.74,0-1.47,0-2.2,0A4.28,4.28,0,0,0,55.3,88.64Zm95.33,26a22,22,0,0,0-5.79-.23C146.77,114.58,148.7,114.65,150.63,114.65Zm-99.57-7.74,0,0a60.88,60.88,0,0,0,7-.51,2.85,2.85,0,0,0-1.56.1,1.26,1.26,0,0,1-.43.08,14.79,14.79,0,0,0-2.58.05C52.7,106.74,51.88,106.83,51.06,106.91Zm-2.1.88-1.19-.17c-.43-.05-.48,0-.65.28s-.07.26.23.26c.52,0,1-.11,1.55-.1.1,0,.16,0,.17-.1a.65.65,0,0,1,.13-.28c.07-.13,0-.14-.16-.13S49,107.69,49,107.79Zm114.64,5.89c.71.1,1.42.1,2.13.14l2.16.14c.71,0,1.42.11,2.13.14a16.48,16.48,0,0,0,2.11,0C169.28,114,166.45,113.7,163.6,113.68Zm-14.51-.6c2.28,0,4.55.25,6.83.27A57.61,57.61,0,0,0,149.09,113.08Zm2.32,2.78a12.32,12.32,0,0,0-3.54-.28A29.81,29.81,0,0,0,151.41,115.86Zm-61.6-4.61a20,20,0,0,0-3.92.09C87.18,111.41,88.49,111.28,89.81,111.25Zm-8.6-25.47a5.16,5.16,0,0,0,2.47-.17A22.43,22.43,0,0,0,81.21,85.78Zm78.44,27.71a13,13,0,0,0,2.92.13A28.4,28.4,0,0,0,159.65,113.49Zm-6.19,2.45-.9-.17a2.05,2.05,0,0,0-.65-.06c-.07,0-.15,0-.14.1s.06.07.12.08A5.16,5.16,0,0,0,153.46,115.94ZM46.73,94.78a14.89,14.89,0,0,0,2.42-.39A8.45,8.45,0,0,0,46.73,94.78Zm17.13,16.66c.54,0,1.06,0,1.58,0,.07,0,.17,0,.19-.06a.16.16,0,0,0-.07-.17c-.08,0-.12,0-.17,0a.62.62,0,0,1-.31.07c-.31,0-.6-.12-.93-.1S63.88,111.28,63.86,111.44Zm-1,.92a14.55,14.55,0,0,1,1.62,0A1.55,1.55,0,0,0,62.81,112.36Zm73.45.67a15.94,15.94,0,0,0-2.67-.1A18.29,18.29,0,0,0,136.26,113Zm-72.44-4.56c-.08-.11,0-.3-.2-.32a2.39,2.39,0,0,0-1.27.17C62.84,108.36,63.37,108.18,63.82,108.47Zm-1.21-5c1.49.07,1.49.07,1.69-.08A4.78,4.78,0,0,0,62.61,103.48Zm-4.61,5-.77,0a1.46,1.46,0,0,0-.59,0c-.06,0-.15.05-.12.11s.1,0,.15,0l1,0A.37.37,0,0,0,58,108.5Z" transform="translate(-41.69 -83)"/>
      <path class="cls-1" d="M41.69,113.32c1.51-.2,3.05,0,4.62-.2C45.81,113.41,42.65,113.78,41.69,113.32Z" transform="translate(-41.69 -83)"/>
      <path class="cls-1" d="M53.73,103.92c-.2-.06-.5,0-.44-.22s.32-.11.5-.1l.6.06a.28.28,0,0,1,.13,0c-.06.22.21.15.36.21A2.78,2.78,0,0,1,54,104l-1.35.07c-.09,0-.24,0-.24-.09s.14-.13.24-.13l.69,0A.8.8,0,0,0,53.73,103.92Z" transform="translate(-41.69 -83)"/>
      <path class="cls-1" d="M64.19,103a5.69,5.69,0,0,1-1.59.2,14.53,14.53,0,0,0-2,.14h-.18c-.07,0-.16,0-.16-.08s.09-.07.16-.07c.61-.07,1.23-.16,1.84-.21A7.19,7.19,0,0,1,64.19,103Z" transform="translate(-41.69 -83)"/>
      <path class="cls-1" d="M140.89,83.44a1.78,1.78,0,0,1-1,.19c-.92,0-1.82-.21-2.75-.18A17,17,0,0,1,140.89,83.44Z" transform="translate(-41.69 -83)"/>
      <path class="cls-1" d="M46.58,103a17.9,17.9,0,0,1,3.66-.18.85.85,0,0,1-.56.17,11.93,11.93,0,0,0-1.89,0c-.4,0-.8,0-1.2.06Z" transform="translate(-41.69 -83)"/>
      <path class="cls-1" d="M143.77,83.58a6,6,0,0,1,2.83,0,1.07,1.07,0,0,1-.65.13c-.5,0-1-.08-1.5-.14C144.22,83.56,144,83.61,143.77,83.58Z" transform="translate(-41.69 -83)"/>
      <path class="cls-1" d="M154.17,84a3,3,0,0,1,2.52.09A23.68,23.68,0,0,0,154.17,84Z" transform="translate(-41.69 -83)"/>
      <path class="cls-1" d="M111.84,115.58a13,13,0,0,1-3.11-.11A19,19,0,0,1,111.84,115.58Z" transform="translate(-41.69 -83)"/>
      <path class="cls-1" d="M143.38,83.39a.75.75,0,0,1-.63.27l-1.08,0s-.11,0-.13,0,0-.08.08-.11a1.15,1.15,0,0,1,.58-.09A6.54,6.54,0,0,0,143.38,83.39Z" transform="translate(-41.69 -83)"/>
      <path class="cls-1" d="M47.58,103.79h0c.11,0,.24-.17.31,0s-.15.16-.28.18-.34.15-.43,0,0-.37.28-.41l.53-.1c.08,0,.2,0,.23.06s-.08.13-.18.15l-.44.07S47.57,103.76,47.58,103.79Z" transform="translate(-41.69 -83)"/>
      <path class="cls-1" d="M152,83.92a.62.62,0,0,1,.59-.25,8.18,8.18,0,0,0,1.32,0,.57.57,0,0,1-.52.22A10.67,10.67,0,0,0,152,83.92Z" transform="translate(-41.69 -83)"/>
      <path class="cls-1" d="M106,116.07c-.46-.07-1-.09-1.46-.13-.08,0-.21,0-.18-.11s.14,0,.21,0c.5.09,1,0,1.51.06.13,0,.36,0,.34.12S106.13,116.05,106,116.07Z" transform="translate(-41.69 -83)"/>
      <path class="cls-1" d="M132.75,83.32a1.3,1.3,0,0,1,.44.05c.08,0,.19,0,.18.13s-.11.13-.21.15a1.44,1.44,0,0,1-.41-.05.4.4,0,0,0-.38,0c-.06.06-.13.12-.19,0s-.18-.17,0-.24A1.3,1.3,0,0,1,132.75,83.32Z" transform="translate(-41.69 -83)"/>
      <path class="cls-1" d="M86.45,115.65a2.33,2.33,0,0,1,1.48-.27s.11,0,.11.06-.05.06-.1.08A5.27,5.27,0,0,1,86.45,115.65Z" transform="translate(-41.69 -83)"/>
      <path class="cls-1" d="M98.63,115.89a12.86,12.86,0,0,1,2.06-.08A4.61,4.61,0,0,1,98.63,115.89Z" transform="translate(-41.69 -83)"/>
      <path class="cls-1" d="M62.45,117a9.21,9.21,0,0,1-1.8.11A2.46,2.46,0,0,1,62.45,117Z" transform="translate(-41.69 -83)"/>
    </g>
  </g>
  <g id="Livello_4" data-name="Livello 4">
    <path class="cls-2" d="M115.89,100.4A9.9,9.9,0,1,1,106,90.51a9.89,9.89,0,0,1,9.89,9.89" transform="translate(-41.69 -83)"/>
    <text class="cls-3" transform="translate(3.49 28.11)">IT</text>
    <text class="cls-4" transform="translate(26.69 28.11)"><tspan class="cls-5">W</tspan><tspan class="cls-6" x="27.31" y="0">O</tspan><tspan x="49.06" y="0">R</tspan><tspan class="cls-7" x="68.03" y="0">L</tspan><tspan x="83.45" y="0">D</tspan></text>
  </g>
</svg>
