<svg xmlns="http://www.w3.org/2000/svg" xmlns:xlink="http://www.w3.org/1999/xlink" viewBox="0 0 488 488"><defs><style>.cls-1{fill:#132943;}.cls-2{fill:#1e344e;}.cls-3{fill:#2a3c51;}.cls-4{fill:#364354;}.cls-5{fill:#404e5e;}.cls-6{fill:#495561;}.cls-7{fill:#fff;}.cls-8{opacity:0.1;}.cls-9{opacity:0.6;}.cls-10{fill:url(#Sfumatura_senza_nome_11);}.cls-11{opacity:0.5;}.cls-12{fill:url(#Sfumatura_senza_nome_56);}.cls-13{fill:url(#Sfumatura_senza_nome_56-2);}.cls-14{fill:url(#Sfumatura_senza_nome_56-3);}</style><linearGradient id="Sfumatura_senza_nome_11" x1="250" y1="132" x2="250" y2="370" gradientUnits="userSpaceOnUse"><stop offset="0" stop-color="#fff"/><stop offset="1" stop-color="#132943"/></linearGradient><linearGradient id="Sfumatura_senza_nome_56" x1="168.62" y1="190.62" x2="205.38" y2="227.38" gradientUnits="userSpaceOnUse"><stop offset="0" stop-color="#b3b3b3"/><stop offset="0.99" stop-color="#666"/></linearGradient><linearGradient id="Sfumatura_senza_nome_56-2" x1="226.83" y1="154.83" x2="250.17" y2="178.17" xlink:href="#Sfumatura_senza_nome_56"/><linearGradient id="Sfumatura_senza_nome_56-3" x1="235.08" y1="206.08" x2="249.92" y2="220.92" xlink:href="#Sfumatura_senza_nome_56"/></defs><title>moon-vector</title><g id="Livello_1_copia" data-name="Livello 1 copia"><circle class="cls-1" cx="244" cy="244" r="244"/><circle class="cls-2" cx="244" cy="244" r="222"/><circle class="cls-3" cx="244" cy="244" r="201"/><circle class="cls-4" cx="244" cy="244" r="180"/><circle class="cls-5" cx="244" cy="244" r="158"/><circle class="cls-6" cx="244" cy="244" r="138"/></g><g id="pianeta_100_" data-name="pianeta 100%"><circle class="cls-7" cx="244" cy="245" r="119"/></g><g id="pianeta_10_" data-name="pianeta 10%" class="cls-8"><circle class="cls-7" cx="244" cy="245" r="119"/></g><g id="pianeta_bordo" data-name="pianeta bordo" class="cls-9"><path class="cls-10" d="M250,135a116,116,0,1,1-82,34,115.24,115.24,0,0,1,82-34m0-3A119,119,0,1,0,369,251,119,119,0,0,0,250,132Z" transform="translate(-6 -6)"/></g><g id="buchi_luna" data-name="buchi luna" class="cls-11"><circle class="cls-12" cx="187" cy="209" r="26"/><circle class="cls-13" cx="238.5" cy="166.5" r="16.5"/><circle class="cls-14" cx="242.5" cy="213.5" r="10.5"/></g><g id="stelle" class="cls-11"><circle class="cls-7" cx="208" cy="110" r="1"/><circle class="cls-7" cx="130.49" cy="134.23" r="1"/><circle class="cls-7" cx="48.51" cy="213.53" r="1"/><circle class="cls-7" cx="83.51" cy="243.53" r="1"/><circle class="cls-7" cx="29.51" cy="293.34" r="1"/><circle class="cls-7" cx="139.51" cy="333.34" r="1"/><circle class="cls-7" cx="45.04" cy="354.04" r="1"/><circle class="cls-7" cx="102.04" cy="391.04" r="1"/><circle class="cls-7" cx="244.17" cy="386.11" r="1"/><circle class="cls-7" cx="381.91" cy="429.81" r="1"/><circle class="cls-7" cx="374.91" cy="346.81" r="1"/><circle class="cls-7" cx="426.68" cy="318.79" r="1"/><circle class="cls-7" cx="462.68" cy="255.79" r="1"/><circle class="cls-7" cx="425.68" cy="219.11" r="1"/><circle class="cls-7" cx="394.68" cy="150.11" r="1"/><circle class="cls-7" cx="446.68" cy="146.11" r="1"/><circle class="cls-7" cx="125.32" cy="83.75" r="1"/><circle class="cls-7" cx="345.93" cy="46.58" r="1"/><circle class="cls-7" cx="315.93" cy="81.58" r="1"/><circle class="cls-7" cx="266.12" cy="47.58" r="1"/><circle class="cls-7" cx="205.42" cy="33.11" r="1"/><circle class="cls-7" cx="55.68" cy="134.58" r="1"/><circle class="cls-7" cx="387.68" cy="104.58" r="1"/><circle class="cls-7" cx="173.4" cy="420.17" r="1"/><circle class="cls-7" cx="215.52" cy="461.3" r="1"/><circle class="cls-7" cx="310.42" cy="430.76" r="1"/></g></svg>