<svg xmlns="http://www.w3.org/2000/svg" xmlns:xlink="http://www.w3.org/1999/xlink" viewBox="0 0 238 238"><defs><style>.cls-1{fill:#fff;}.cls-2{opacity:0.6;}.cls-3{fill:url(#Sfumatura_senza_nome_11);}.cls-4{opacity:0.5;}.cls-5{fill:url(#Sfumatura_senza_nome_56);}.cls-6{fill:url(#Sfumatura_senza_nome_56-2);}.cls-7{fill:url(#Sfumatura_senza_nome_56-3);}</style><linearGradient id="Sfumatura_senza_nome_11" x1="250" y1="132" x2="250" y2="370" gradientUnits="userSpaceOnUse"><stop offset="0" stop-color="#fff"/><stop offset="1" stop-color="#132943"/></linearGradient><linearGradient id="Sfumatura_senza_nome_56" x1="43.62" y1="64.62" x2="80.38" y2="101.38" gradientUnits="userSpaceOnUse"><stop offset="0" stop-color="#b3b3b3"/><stop offset="0.99" stop-color="#666"/></linearGradient><linearGradient id="Sfumatura_senza_nome_56-2" x1="101.83" y1="28.83" x2="125.17" y2="52.17" xlink:href="#Sfumatura_senza_nome_56"/><linearGradient id="Sfumatura_senza_nome_56-3" x1="110.08" y1="80.08" x2="124.92" y2="94.92" xlink:href="#Sfumatura_senza_nome_56"/></defs><title>moon-solo-vector</title><g id="pianeta_100_" data-name="pianeta 100%"><circle class="cls-1" cx="119" cy="119" r="119"/></g><g id="pianeta_bordo" data-name="pianeta bordo" class="cls-2"><path class="cls-3" d="M250,135a116,116,0,1,1-82,34,115.24,115.24,0,0,1,82-34m0-3A119,119,0,1,0,369,251,119,119,0,0,0,250,132Z" transform="translate(-131 -132)"/></g><g id="buchi_luna" data-name="buchi luna" class="cls-4"><circle class="cls-5" cx="62" cy="83" r="26"/><circle class="cls-6" cx="113.5" cy="40.5" r="16.5"/><circle class="cls-7" cx="117.5" cy="87.5" r="10.5"/></g></svg>