<svg xmlns="http://www.w3.org/2000/svg" viewBox="0 0 435.17 430.19"><defs><style>.cls-1{opacity:0.5;}.cls-2{fill:#fff;}</style></defs><title>planet-vector-stars-solo</title><g id="stelle" class="cls-1"><circle class="cls-2" cx="179.49" cy="77.89" r="1"/><circle class="cls-2" cx="101.98" cy="102.11" r="1"/><circle class="cls-2" cx="20" cy="181.42" r="1"/><circle class="cls-2" cx="55" cy="211.42" r="1"/><circle class="cls-2" cx="1" cy="261.23" r="1"/><circle class="cls-2" cx="111" cy="301.23" r="1"/><circle class="cls-2" cx="16.53" cy="321.92" r="1"/><circle class="cls-2" cx="73.53" cy="358.92" r="1"/><circle class="cls-2" cx="215.66" cy="354" r="1"/><circle class="cls-2" cx="353.4" cy="397.7" r="1"/><circle class="cls-2" cx="346.4" cy="314.7" r="1"/><circle class="cls-2" cx="398.17" cy="286.68" r="1"/><circle class="cls-2" cx="434.17" cy="223.68" r="1"/><circle class="cls-2" cx="397.17" cy="187" r="1"/><circle class="cls-2" cx="366.17" cy="118" r="1"/><circle class="cls-2" cx="418.17" cy="114" r="1"/><circle class="cls-2" cx="96.81" cy="51.64" r="1"/><circle class="cls-2" cx="317.42" cy="14.47" r="1"/><circle class="cls-2" cx="287.42" cy="49.47" r="1"/><circle class="cls-2" cx="237.61" cy="15.47" r="1"/><circle class="cls-2" cx="176.92" cy="1" r="1"/><circle class="cls-2" cx="27.17" cy="102.47" r="1"/><circle class="cls-2" cx="359.17" cy="72.47" r="1"/><circle class="cls-2" cx="144.89" cy="388.06" r="1"/><circle class="cls-2" cx="187.02" cy="429.19" r="1"/><circle class="cls-2" cx="281.91" cy="398.64" r="1"/></g></svg>